<svg id="Bateria_da_máquina" data-name="Bateria da máquina" xmlns="http://www.w3.org/2000/svg" width="30" height="15" viewBox="0 0 30 15">
  <path id="Icon_awesome-battery-quarter" data-name="Icon awesome-battery-quarter" d="M25.5,7.5v3H27v3H25.5v3H3v-9H25.5m.75-3h-24A2.25,2.25,0,0,0,0,6.75v10.5A2.25,2.25,0,0,0,2.25,19.5h24a2.25,2.25,0,0,0,2.25-2.25V16.5h.375A1.125,1.125,0,0,0,30,15.375V8.625A1.125,1.125,0,0,0,28.875,7.5H28.5V6.75A2.25,2.25,0,0,0,26.25,4.5ZM10.5,9h-6v6h6Z" transform="translate(0 -4.5)" fill="#d20000"/>
</svg>
