<svg xmlns="http://www.w3.org/2000/svg" width="31.997" height="31.997" viewBox="0 0 31.997 31.997">
  <path id="Ciclo_atual_padrão_-_ícone" data-name="Ciclo atual/padrão - ícone" d="M136-808a15.536,15.536,0,0,1-10.688-4.066,15.422,15.422,0,0,1-5.222-10.155h3.644a11.885,11.885,0,0,0,4.111,7.644A12.067,12.067,0,0,0,136-811.558a12.005,12.005,0,0,0,8.821-3.622A12.005,12.005,0,0,0,148.442-824a12.005,12.005,0,0,0-3.622-8.821A12.005,12.005,0,0,0,136-836.445a12,12,0,0,0-5.733,1.422,13.21,13.21,0,0,0-4.488,3.911h4.888v3.555H120v-10.666h3.555v4.177a15.519,15.519,0,0,1,5.533-4.4A15.874,15.874,0,0,1,136-840a15.478,15.478,0,0,1,6.244,1.267,16.26,16.26,0,0,1,5.066,3.422,16.261,16.261,0,0,1,3.422,5.066A15.478,15.478,0,0,1,152-824a15.478,15.478,0,0,1-1.267,6.244,16.262,16.262,0,0,1-3.422,5.066,16.262,16.262,0,0,1-5.066,3.422A15.478,15.478,0,0,1,136-808Zm4.977-8.533-6.755-6.755v-9.6h3.555v8.177l5.688,5.688Z" transform="translate(-120 840)" fill="#0067a6"/>
</svg>
