<svg xmlns="http://www.w3.org/2000/svg" width="24.5" height="28" viewBox="0 0 24.5 28">
  <path id="Icone_-_Data_de_finalização_do_contrato" data-name="Icone - Data de finalização do contrato" d="M7,0A1.748,1.748,0,0,1,8.75,1.75V3.5h7V1.75a1.75,1.75,0,0,1,3.5,0V3.5h2.625A2.626,2.626,0,0,1,24.5,6.125V8.75H0V6.125A2.626,2.626,0,0,1,2.625,3.5H5.25V1.75A1.748,1.748,0,0,1,7,0ZM0,10.5H24.5V25.375A2.626,2.626,0,0,1,21.875,28H2.625A2.626,2.626,0,0,1,0,25.375ZM4.375,14a.878.878,0,0,0-.875.875v3.5a.878.878,0,0,0,.875.875h15.75A.878.878,0,0,0,21,18.375v-3.5A.878.878,0,0,0,20.125,14Z" fill="#c63637"/>
</svg>
