<svg xmlns="http://www.w3.org/2000/svg" width="42" height="48" viewBox="0 0 42 48">
  <g id="Icone_-_Próxima_cobrança" data-name="Icone - Próxima cobrança" transform="translate(-887 -183)">
    <path id="Icon_fa-solid-calendar" data-name="Icon fa-solid-calendar" d="M9,3V6H4.5A4.5,4.5,0,0,0,0,10.5V15H42V10.5A4.5,4.5,0,0,0,37.5,6H33V3a3,3,0,0,0-6,0V6H15V3A3,3,0,0,0,9,3ZM42,18H0V43.5A4.5,4.5,0,0,0,4.5,48h33A4.5,4.5,0,0,0,42,43.5Z" transform="translate(887 183)" fill="#42ab49"/>
    <path id="Icon_fa-solid-hand-holding-dollar" data-name="Icon fa-solid-hand-holding-dollar" d="M12.188.938v.41c.25.047.492.105.711.164a.938.938,0,0,1-.484,1.813,4.946,4.946,0,0,0-1.18-.2,1.575,1.575,0,0,0-.758.172.447.447,0,0,0-.137.117.186.186,0,0,0-.027.109v.023a.446.446,0,0,0,.129.1,5.1,5.1,0,0,0,1.07.395l.035.012a6.128,6.128,0,0,1,1.48.6A2.052,2.052,0,0,1,14.059,6.41,2.148,2.148,0,0,1,13.016,8.3a2.907,2.907,0,0,1-.832.344v.414a.938.938,0,0,1-1.875,0V8.617c-.371-.09-.711-.207-1-.3-.082-.027-.16-.055-.234-.078a.939.939,0,0,1,.594-1.781l.285.1a4.735,4.735,0,0,0,1.324.324,1.418,1.418,0,0,0,.75-.16.363.363,0,0,0,.125-.113.263.263,0,0,0,.031-.16V6.434c0-.039,0-.082-.156-.18a4.75,4.75,0,0,0-1.059-.4l-.074-.023a6.212,6.212,0,0,1-1.422-.562A1.975,1.975,0,0,1,8.434,3.543,2.1,2.1,0,0,1,9.516,1.691a3.046,3.046,0,0,1,.789-.32V.938a.938.938,0,0,1,1.875,0ZM22.2,13.137a1.561,1.561,0,0,1-.332,2.184l-4.945,3.645A5.317,5.317,0,0,1,13.766,20H1.25A1.249,1.249,0,0,1,0,18.75v-2.5A1.249,1.249,0,0,1,1.25,15H2.688l1.754-1.406A4.99,4.99,0,0,1,7.566,12.5H13.75a1.25,1.25,0,0,1,0,2.5H10.625a.625.625,0,0,0,0,1.25h4.711L20.012,12.8A1.561,1.561,0,0,1,22.2,13.137ZM7.563,15h0Z" transform="translate(897 207)" fill="#fbfbfb"/>
  </g>
</svg>
