<svg xmlns="http://www.w3.org/2000/svg" width="24.5" height="28" viewBox="0 0 24.5 28">
  <path id="Icone_-_Início_de_locação" data-name="Icone - Início de locação" d="M7,0A1.748,1.748,0,0,1,8.75,1.75V3.5h7V1.75a1.75,1.75,0,0,1,3.5,0V3.5h2.625A2.626,2.626,0,0,1,24.5,6.125V8.75H0V6.125A2.626,2.626,0,0,1,2.625,3.5H5.25V1.75A1.748,1.748,0,0,1,7,0ZM0,10.5H24.5V25.375A2.626,2.626,0,0,1,21.875,28H2.625A2.626,2.626,0,0,1,0,25.375Zm17.992,6.18a1.311,1.311,0,1,0-1.854-1.854l-5.2,5.2-2.57-2.57A1.311,1.311,0,0,0,6.519,19.3l3.5,3.5a1.307,1.307,0,0,0,1.854,0Z" fill="#0067a6"/>
</svg>
