<svg xmlns="http://www.w3.org/2000/svg" width="48" height="48" viewBox="0 0 48 48">
  <path id="Icone_-_Horas_utilizadas" data-name="Icone - Horas utilizadas" d="M29.333,45.333A2.667,2.667,0,1,0,32,42.667,2.675,2.675,0,0,0,29.333,45.333ZM29.333,8V18.667h5.333v-5.12A18.657,18.657,0,1,1,13.333,32a18.446,18.446,0,0,1,4.213-11.787L32,34.667l3.76-3.76L17.627,12.773v.053A23.953,23.953,0,1,0,32,8ZM48,32a2.667,2.667,0,1,0-2.667,2.667A2.675,2.675,0,0,0,48,32ZM16,32a2.667,2.667,0,1,0,2.667-2.667A2.675,2.675,0,0,0,16,32Z" transform="translate(-8 -8)" fill="#42ab49"/>
</svg>
