<svg xmlns="http://www.w3.org/2000/svg" xmlns:xlink="http://www.w3.org/1999/xlink" width="32" height="32" viewBox="0 0 32 32">
  <defs>
    <clipPath id="clip-path">
      <rect id="Retângulo_276" data-name="Retângulo 276" width="32" height="32" transform="translate(13 46)" fill="#0067a6" stroke="#707070" stroke-width="1"/>
    </clipPath>
  </defs>
  <g id="Grupo_de_máscara_9" data-name="Grupo de máscara 9" transform="translate(-13 -46)" clip-path="url(#clip-path)">
    <path id="Horimetro_total_-_ícone" data-name="Horimetro total - ícone" d="M23.28-11.92,17.6-17.6v-8h3.2v6.68l4.72,4.72ZM17.6-28.8V-32h3.2v3.2ZM28.8-17.6v-3.2H32v3.2ZM17.6-6.4V-9.6h3.2v3.2ZM6.4-17.6v-3.2H9.6v3.2ZM19.2-3.2a15.58,15.58,0,0,1-6.24-1.26A16.158,16.158,0,0,1,7.88-7.88a16.158,16.158,0,0,1-3.42-5.08A15.58,15.58,0,0,1,3.2-19.2a15.58,15.58,0,0,1,1.26-6.24,16.158,16.158,0,0,1,3.42-5.08,16.158,16.158,0,0,1,5.08-3.42A15.58,15.58,0,0,1,19.2-35.2a15.58,15.58,0,0,1,6.24,1.26,16.158,16.158,0,0,1,5.08,3.42,16.158,16.158,0,0,1,3.42,5.08A15.58,15.58,0,0,1,35.2-19.2a15.58,15.58,0,0,1-1.26,6.24,16.158,16.158,0,0,1-3.42,5.08,16.158,16.158,0,0,1-5.08,3.42A15.58,15.58,0,0,1,19.2-3.2Zm0-3.2a12.354,12.354,0,0,0,9.08-3.72A12.354,12.354,0,0,0,32-19.2a12.354,12.354,0,0,0-3.72-9.08A12.354,12.354,0,0,0,19.2-32a12.354,12.354,0,0,0-9.08,3.72A12.354,12.354,0,0,0,6.4-19.2a12.354,12.354,0,0,0,3.72,9.08A12.354,12.354,0,0,0,19.2-6.4ZM19.2-19.2Z" transform="translate(9.801 81.199)" fill="#0067a6"/>
  </g>
</svg>
