<svg xmlns="http://www.w3.org/2000/svg" width="48" height="48" viewBox="0 0 48 48">
  <path id="Icone_-_Status_de_pagamento" data-name="Icone - Status de pagamento" d="M30.628,37.847a19.626,19.626,0,0,1-13.256,0c-.028-.009-.047-.019-.075-.028A19.506,19.506,0,1,1,38.072,33c-.094.094-.187.2-.281.291a19.573,19.573,0,0,1-7.153,4.556ZM24,8.616A1.884,1.884,0,0,0,22.116,10.5v.563a7.693,7.693,0,0,0-1.491.478,4.832,4.832,0,0,0-2.916,3.534,4.475,4.475,0,0,0,.319,2.719,4.64,4.64,0,0,0,1.622,1.828,13.359,13.359,0,0,0,3.619,1.5l.206.066a9.91,9.91,0,0,1,2.747,1.1.918.918,0,0,1,.347.375,1.133,1.133,0,0,1,.019.628,1.068,1.068,0,0,1-.75.825,5.125,5.125,0,0,1-2.7.178,19.421,19.421,0,0,1-2.456-.741c-.206-.066-.4-.141-.6-.2A1.877,1.877,0,0,0,18.9,26.916c.112.038.253.084.413.141.741.253,1.9.647,2.794.853V28.5a1.884,1.884,0,0,0,3.769,0v-.516a6.929,6.929,0,0,0,1.444-.431A4.891,4.891,0,0,0,30,21.169a4.7,4.7,0,0,0-1.584-1.922,13.084,13.084,0,0,0-3.788-1.631l-.075-.019a11.527,11.527,0,0,1-2.8-1.069.917.917,0,0,1-.337-.328c-.019-.028-.066-.15-.009-.469.028-.178.178-.488.769-.759a4.86,4.86,0,0,1,2.681-.244c.4.066,1.678.309,2.034.4a1.877,1.877,0,0,0,.966-3.628c-.413-.113-1.35-.3-1.969-.413V10.5A1.884,1.884,0,0,0,24,8.616ZM4.5,33H6a22.683,22.683,0,0,0,6.769,6H6v3H42V39H35.231A22.569,22.569,0,0,0,42,33h1.5A4.5,4.5,0,0,1,48,37.5v6A4.5,4.5,0,0,1,43.5,48H4.5A4.5,4.5,0,0,1,0,43.5v-6A4.5,4.5,0,0,1,4.5,33Z" fill="#42ab49"/>
</svg>
