<svg xmlns="http://www.w3.org/2000/svg" width="25.002" height="25" viewBox="0 0 25.002 25">
  <path id="Subtração_10" data-name="Subtração 10" d="M-4519,14038a11.926,11.926,0,0,1-8.488-3.515A11.92,11.92,0,0,1-4531,14026a11.92,11.92,0,0,1,3.515-8.485A11.926,11.926,0,0,1-4519,14014a11.921,11.921,0,0,1,8.485,3.515A11.923,11.923,0,0,1-4507,14026a11.923,11.923,0,0,1-3.515,8.485A11.921,11.921,0,0,1-4519,14038Zm0-13.751a1,1,0,0,0-1,1v6a1,1,0,0,0,1,1,1,1,0,0,0,1-1v-6A1,1,0,0,0-4519,14024.25Zm-.127-4.249a1.127,1.127,0,0,0-1.131,1.12,1.125,1.125,0,0,0,1.131,1.117,1.125,1.125,0,0,0,1.131-1.117A1.127,1.127,0,0,0-4519.129,14020Z" transform="translate(4531.501 -14013.501)" fill="#0067a6" stroke="rgba(0,0,0,0)" stroke-miterlimit="10" stroke-width="1"/>
</svg>
