<svg xmlns="http://www.w3.org/2000/svg" width="16" height="15.19" viewBox="0 0 16 15.19">
  <g id="Máquinas" transform="translate(-0.1 -13.05)">
    <path id="Caminho_719" data-name="Caminho 719" d="M15.912,324.313H.288a.186.186,0,0,1-.188-.185v-5.174a.186.186,0,0,1,.188-.184H15.912a.186.186,0,0,1,.188.184v5.174A.186.186,0,0,1,15.912,324.313ZM4.858,323.03H2.433a.186.186,0,0,1-.187-.185v-2.608a.186.186,0,0,1,.187-.185H4.858a.186.186,0,0,1,.188.185v2.608A.186.186,0,0,1,4.858,323.03Zm-2.237-.369H4.67v-2.239H2.621Zm11.146.369H11.342a.186.186,0,0,1-.188-.185v-2.608a.186.186,0,0,1,.188-.185h2.425a.186.186,0,0,1,.187.185v2.608A.186.186,0,0,1,13.767,323.03Zm-2.237-.369h2.05v-2.239H11.53Zm-1.935-1.566H6.62a.185.185,0,1,1,0-.369H9.594a.185.185,0,1,1,0,.369Zm0,1.262H6.62a.184.184,0,1,1,0-.369H9.594a.184.184,0,1,1,0,.369Z" transform="translate(0 -296.072)" fill="#272727" fill-rule="evenodd"/>
    <path id="Caminho_720" data-name="Caminho 720" d="M421.45,240.261V238.15h2.616v2.111Z" transform="translate(-408.132 -218.044)" fill="#272727" fill-rule="evenodd"/>
    <path id="Caminho_721" data-name="Caminho 721" d="M370.554,100.023h-3.939a.185.185,0,0,1-.185-.185V96.2a.184.184,0,0,1,.185-.184h3.939a.184.184,0,0,1,.185.184v3.634A.185.185,0,0,1,370.554,100.023Z" transform="translate(-354.805 -80.361)" fill="#272727" fill-rule="evenodd"/>
    <path id="Caminho_722" data-name="Caminho 722" d="M297.885,105.269l-1.668-.548a.184.184,0,0,1-.127-.175v-2.214a.185.185,0,0,1,.127-.175l1.668-.547Z" transform="translate(-286.718 -85.777)" fill="#272727" fill-rule="evenodd"/>
    <path id="Caminho_723" data-name="Caminho 723" d="M237.713,155.459h-1.859a.184.184,0,1,1,0-.369h1.859a.184.184,0,1,1,0,.369Z" transform="translate(-228.186 -137.598)" fill="#272727" fill-rule="evenodd"/>
    <path id="Caminho_724" data-name="Caminho 724" d="M.1,22.085V13.235a.185.185,0,0,1,.185-.185H2.69a.185.185,0,0,1,.185.185v8.851H.1Z" fill="#272727" fill-rule="evenodd"/>
    <path id="Caminho_725" data-name="Caminho 725" d="M103.345,78.466H102.29V72.34h1.055a.185.185,0,0,1,.185.185v5.756A.184.184,0,0,1,103.345,78.466Z" transform="translate(-98.991 -57.466)" fill="#272727" fill-rule="evenodd"/>
    <path id="Caminho_726" data-name="Caminho 726" d="M156.182,107.033H154.6V105.24h1.582a.185.185,0,0,1,.185.185v1.423A.185.185,0,0,1,156.182,107.033Zm0-2.46H154.6V102.78h1.582a.185.185,0,0,1,.185.185v1.423A.185.185,0,0,1,156.182,104.572Z" transform="translate(-149.66 -86.907)" fill="#272727" fill-rule="evenodd"/>
  </g>
</svg>
