<svg xmlns="http://www.w3.org/2000/svg" width="18.323" height="18.781" viewBox="0 0 18.323 18.781">
  <path id="Cadastro_de_modelos" data-name="Cadastro de modelos" d="M5.367,22.281H16.415a1.655,1.655,0,0,0,1.657-1.657V17.542l3.48-3.48a1.667,1.667,0,0,0,0-2.342l-.652-.652a1.667,1.667,0,0,0-2.342,0l-.486.486v-6.4A1.655,1.655,0,0,0,16.415,3.5H5.367A1.655,1.655,0,0,0,3.71,5.157V20.624a1.655,1.655,0,0,0,1.657,1.657ZM19.343,11.852a.567.567,0,0,1,.784,0l.652.652a.547.547,0,0,1,0,.784l-.486.486-1.425-1.425.486-.486Zm-1.27,1.27L19.5,14.548,15.244,18.8a.563.563,0,0,1-.387.166h-1.2v-1.2a.518.518,0,0,1,.166-.387l4.253-4.253ZM8.682,5.71H13.1a.552.552,0,0,1,0,1.1H8.682a.552.552,0,0,1,0-1.1ZM6.472,9.024H15.31a.552.552,0,0,1,0,1.1H6.472a.552.552,0,1,1,0-1.1Zm0,2.21H15.31a.552.552,0,0,1,0,1.1H6.472a.552.552,0,1,1,0-1.1Zm0,2.21H13.1a.552.552,0,1,1,0,1.1H6.472a.552.552,0,1,1,0-1.1Zm0,2.21h4.419a.552.552,0,1,1,0,1.1H6.472a.552.552,0,1,1,0-1.1Z" transform="translate(-3.71 -3.5)" fill="#272727"/>
</svg>
