<svg xmlns="http://www.w3.org/2000/svg" width="12" height="16" viewBox="0 0 12 16">
  <path id="Icon_fa-solid-file-invoice-dollar" data-name="Icon fa-solid-file-invoice-dollar" d="M2,0A2,2,0,0,0,0,2V14a2,2,0,0,0,2,2h8a2,2,0,0,0,2-2V5H8A1,1,0,0,1,7,4V0ZM8,0V4h4ZM2,2.5A.5.5,0,0,1,2.5,2h2a.5.5,0,0,1,0,1h-2A.5.5,0,0,1,2,2.5Zm0,2A.5.5,0,0,1,2.5,4h2a.5.5,0,0,1,0,1h-2A.5.5,0,0,1,2,4.5ZM6,6.75a.5.5,0,0,1,.5.5v.541a6.257,6.257,0,0,1,.753.159.5.5,0,1,1-.259.966,4.1,4.1,0,0,0-1-.166,1.479,1.479,0,0,0-.738.172.436.436,0,0,0-.253.4c0,.116.041.2.228.316a4.392,4.392,0,0,0,.912.341l.016,0a4.638,4.638,0,0,1,1.134.456A1.4,1.4,0,0,1,8,11.631a1.462,1.462,0,0,1-.716,1.3,2.177,2.177,0,0,1-.784.284v.534a.5.5,0,0,1-1,0v-.556a6.688,6.688,0,0,1-.966-.278l-.194-.066a.5.5,0,0,1,.316-.947c.078.025.15.05.222.075a3.891,3.891,0,0,0,1.134.272,1.377,1.377,0,0,0,.741-.166A.465.465,0,0,0,7,11.647a.408.408,0,0,0-.241-.363,3.949,3.949,0,0,0-.906-.35l-.05-.016a4.767,4.767,0,0,1-1.088-.428A1.332,1.332,0,0,1,4,9.325a1.432,1.432,0,0,1,.744-1.266A2.3,2.3,0,0,1,5.5,7.787V7.25a.5.5,0,0,1,.5-.5Z"/>
</svg>
