<svg id="Gerar_relat칩rio_pequeno_-_F치brica" data-name="Gerar relat칩rio pequeno - F치brica" xmlns="http://www.w3.org/2000/svg" width="32" height="32" viewBox="0 0 32 32">
  <path id="Icon_fa-solid-file-pdf" data-name="Icon fa-solid-file-pdf" d="M0,2A2,2,0,0,1,2,0H7V4A1,1,0,0,0,8,5h4V9.5H5.5a2,2,0,0,0-2,2V16H2a2,2,0,0,1-2-2ZM12,4H8V0ZM5.5,11h1a1.75,1.75,0,0,1,0,3.5H6v1a.5.5,0,0,1-1,0v-4A.5.5,0,0,1,5.5,11Zm1,2.5a.75.75,0,0,0,0-1.5H6v1.5Zm3-2.5h1A1.5,1.5,0,0,1,12,12.5v2A1.5,1.5,0,0,1,10.5,16h-1a.5.5,0,0,1-.5-.5v-4A.5.5,0,0,1,9.5,11Zm1,4a.5.5,0,0,0,.5-.5v-2a.5.5,0,0,0-.5-.5H10v3ZM13,11.5a.5.5,0,0,1,.5-.5H15a.5.5,0,0,1,0,1H14v1h1a.5.5,0,0,1,0,1H14v1.5a.5.5,0,0,1-1,0Z" transform="translate(8.25 8)" />
</svg>
