<svg xmlns="http://www.w3.org/2000/svg" width="24" height="24" viewBox="0 0 24 24">
  <g id="Grupo_1528" data-name="Grupo 1528" transform="translate(-743.95 -1927)">
    <path id="Polígono_13" data-name="Polígono 13" d="M14.527.956a1,1,0,0,1,1.592.507l.7,2.5a1,1,0,0,0,.992.73l2.46-.071a1,1,0,0,1,.976,1.32l-.871,2.574a1,1,0,0,0,.363,1.132l2.134,1.538a1,1,0,0,1,0,1.623L20.74,14.349a1,1,0,0,0-.363,1.132l.871,2.574a1,1,0,0,1-.976,1.32l-2.46-.071a1,1,0,0,0-.992.73l-.7,2.5a1,1,0,0,1-1.592.507l-1.9-1.535a1,1,0,0,0-1.258,0l-1.9,1.535a1,1,0,0,1-1.592-.507l-.7-2.5a1,1,0,0,0-.992-.73l-2.46.071a1,1,0,0,1-.976-1.32l.871-2.574a1,1,0,0,0-.363-1.132L1.126,12.811a1,1,0,0,1,0-1.623L3.26,9.651a1,1,0,0,0,.363-1.132L2.752,5.945a1,1,0,0,1,.976-1.32l2.46.071a1,1,0,0,0,.992-.73l.7-2.5A1,1,0,0,1,9.473.956l1.9,1.535a1,1,0,0,0,1.258,0Z" transform="translate(743.95 1927)" />
    <text id="_" data-name="%" transform="translate(749.845 1932)" fill="#fbfbfb" font-size="13" font-family="Arial-BoldMT, Arial" font-weight="700"><tspan x="1" y="12">%</tspan></text>
  </g>
</svg>
