<svg xmlns="http://www.w3.org/2000/svg" width="18.569" height="17.408" viewBox="0 0 18.569 17.408">
  <g id="Cadastro_de_software" data-name="Cadastro de software" transform="translate(-11293.403 3365.204)">
    <path id="Caminho_732" data-name="Caminho 732" d="M102.425,421.088H100.64L100.278,420H93.691l-.363,1.088H91.544a.544.544,0,0,0,0,1.088h10.88a.544.544,0,1,0,0-1.088Zm0,0" transform="translate(11205.703 -3769.972)" fill="#272727"/>
    <path id="Caminho_733" data-name="Caminho 733" d="M391.544,90a.544.544,0,1,0,.544.544A.544.544,0,0,0,391.544,90Zm0,0" transform="translate(10916.584 -3451.94)" fill="#272727"/>
    <path id="Caminho_734" data-name="Caminho 734" d="M16.9,0H1.632A1.634,1.634,0,0,0,0,1.632V10.88H3.3V9.248A.544.544,0,0,1,3.844,8.7h.841a4.842,4.842,0,0,1,.193-.466l-.595-.6a.544.544,0,0,1,0-.769L5.822,5.335a.544.544,0,0,1,.769,0l.6.6a4.867,4.867,0,0,1,.466-.194V4.9A.544.544,0,0,1,8.2,4.352h2.176a.544.544,0,0,1,.544.544v.841a4.881,4.881,0,0,1,.466.194l.6-.6a.544.544,0,0,1,.769,0l1.539,1.539a.544.544,0,0,1,0,.769l-.595.6a4.856,4.856,0,0,1,.193.466h.841a.544.544,0,0,1,.544.544V10.88h3.3V1.632A1.665,1.665,0,0,0,16.9,0ZM14.724,5.44a1.632,1.632,0,1,1,1.632-1.632A1.634,1.634,0,0,1,14.724,5.44Zm0,0" transform="translate(11293.403 -3365.204)" fill="#272727"/>
    <path id="Caminho_735" data-name="Caminho 735" d="M211,241.632a1.621,1.621,0,0,0,.106.544h3.053a1.627,1.627,0,1,0-3.158-.544Zm0,0" transform="translate(11090.056 -3596.5)" fill="#272727"/>
    <path id="Caminho_736" data-name="Caminho 736" d="M122.225,153.944a.544.544,0,0,1-.527.408H121v1.088h2.248a2.721,2.721,0,1,1,5.3,0h2.248v-1.088h-.7a.544.544,0,0,1-.527-.408,3.74,3.74,0,0,0-.4-.97.544.544,0,0,1,.084-.661l.495-.5-.769-.769-.5.5a.542.542,0,0,1-.661.083,3.737,3.737,0,0,0-.969-.4.544.544,0,0,1-.408-.527V150h-1.088v.7a.544.544,0,0,1-.408.527,3.737,3.737,0,0,0-.969.4.542.542,0,0,1-.661-.083l-.5-.5-.769.769.495.5a.544.544,0,0,1,.084.661A3.74,3.74,0,0,0,122.225,153.944Zm0,0" transform="translate(11176.792 -3509.764)" fill="#272727"/>
    <path id="Caminho_737" data-name="Caminho 737" d="M0,330.544a1.634,1.634,0,0,0,1.632,1.632H16.9a1.665,1.665,0,0,0,1.668-1.632V330H0Zm0,0" transform="translate(11293.403 -3683.236)" fill="#272727"/>
  </g>
</svg>
