<svg xmlns="http://www.w3.org/2000/svg" xmlns:xlink="http://www.w3.org/1999/xlink" width="32" height="32" viewBox="0 0 32 32">
  <defs>
    <clipPath id="clip-path">
      <rect id="Retângulo_276" data-name="Retângulo 276" width="32" height="32" transform="translate(13 46)" fill="#0067a6" stroke="#707070" stroke-width="1"/>
    </clipPath>
  </defs>
  <g id="Velocidade_do_spindle_-_ícone" data-name="Velocidade do spindle - ícone" transform="translate(-13 -46)" clip-path="url(#clip-path)">
    <path id="speed_FILL0_wght400_GRAD0_opsz24" d="M16.719-13.6a3.291,3.291,0,0,0,2.48.94,2.545,2.545,0,0,0,2.24-1.1L30.4-27.2,16.959-18.238a2.6,2.6,0,0,0-1.14,2.2A3.115,3.115,0,0,0,16.719-13.6ZM19.2-32a15.58,15.58,0,0,1,4.54.66,14.739,14.739,0,0,1,4.1,1.98l-3.04,1.92a12.133,12.133,0,0,0-2.74-1.02,12.241,12.241,0,0,0-2.86-.34,12.338,12.338,0,0,0-9.059,3.74A12.338,12.338,0,0,0,6.4-16a12.237,12.237,0,0,0,.46,3.32,13.113,13.113,0,0,0,1.3,3.08H30.237a11.675,11.675,0,0,0,1.34-3.16,13.65,13.65,0,0,0,.42-3.4,11.5,11.5,0,0,0-.34-2.8,11.617,11.617,0,0,0-1.02-2.64l1.92-3.04a17.747,17.747,0,0,1,1.9,4,14.777,14.777,0,0,1,.74,4.4,15.635,15.635,0,0,1-.52,4.36,16.561,16.561,0,0,1-1.64,3.96,3.035,3.035,0,0,1-1.2,1.12,3.388,3.388,0,0,1-1.6.4H8.159a3.388,3.388,0,0,1-1.6-.4,3.035,3.035,0,0,1-1.2-1.12,16.316,16.316,0,0,1-1.6-3.82A15.876,15.876,0,0,1,3.2-16a15.437,15.437,0,0,1,1.26-6.219A16.291,16.291,0,0,1,7.9-27.3a16.228,16.228,0,0,1,5.1-3.44A15.48,15.48,0,0,1,19.2-32ZM19.478-19.478Z" transform="translate(9.801 81.199)" fill="#0067a6"/>
  </g>
</svg>
