<svg xmlns="http://www.w3.org/2000/svg" width="25" height="25" viewBox="0 0 25 25">
  <g id="Grupo_1527" data-name="Grupo 1527" transform="translate(-62.5 -1489.5)">
    <circle id="Ellipse_4" data-name="Ellipse 4" cx="12" cy="12" r="12" transform="translate(63 1490)" fill="#42ab49" stroke="rgba(0,0,0,0)" stroke-miterlimit="10" stroke-width="1"/>
    <path id="check" d="M856.832,6243a1.105,1.105,0,0,0-.782.371c-1.8,1.943-3.442,3.849-5.17,5.751l-2.031-1.756a1.083,1.083,0,0,0-1.6.191,1.292,1.292,0,0,0,.177,1.724h0l2.843,2.45a1.077,1.077,0,0,0,1.516-.095c2.045-2.209,3.877-4.378,5.875-6.536a1.294,1.294,0,0,0,.015-1.733A1.1,1.1,0,0,0,856.832,6243Z" transform="translate(-776.501 -4745.496)" fill="#fbfbfb" stroke="rgba(0,0,0,0)" stroke-miterlimit="10" stroke-width="1"/>
  </g>
</svg>
