<svg xmlns="http://www.w3.org/2000/svg" xmlns:xlink="http://www.w3.org/1999/xlink" width="32" height="32" viewBox="0 0 32 32">
  <defs>
    <clipPath id="clip-path">
      <rect id="Retângulo_276" data-name="Retângulo 276" width="32" height="32" transform="translate(13 46)" fill="#0067a6" stroke="#707070" stroke-width="1"/>
    </clipPath>
  </defs>
  <g id="Nome_do_programa_atual" data-name="Nome do programa atual" transform="translate(-13 -46)" clip-path="url(#clip-path)">
    <path id="terminal_FILL0_wght400_GRAD0_opsz24" d="M6.4-6.4a3.081,3.081,0,0,1-2.26-.94A3.081,3.081,0,0,1,3.2-9.6V-28.8a3.081,3.081,0,0,1,.94-2.26A3.081,3.081,0,0,1,6.4-32H32a3.081,3.081,0,0,1,2.26.94,3.081,3.081,0,0,1,.94,2.26V-9.6a3.081,3.081,0,0,1-.94,2.26A3.081,3.081,0,0,1,32-6.4Zm0-3.2H32v-16H6.4ZM12-11.2,9.76-13.44l4.12-4.16L9.72-21.76,12-24l6.4,6.4Zm7.2,0v-3.2h9.6v3.2Z" transform="translate(9.801 81.199)" fill="#0067a6"/>
  </g>
</svg>
