<svg xmlns="http://www.w3.org/2000/svg" xmlns:xlink="http://www.w3.org/1999/xlink" width="32" height="32" viewBox="0 0 32 32">
  <defs>
    <clipPath id="clip-path">
      <rect id="Retângulo_276" data-name="Retângulo 276" width="32" height="32" transform="translate(13 46)" fill="#0067a6" stroke="#707070" stroke-width="1"/>
    </clipPath>
  </defs>
  <g id="Contador_de_peças_-_ícone" data-name="Contador de peças - ícone" transform="translate(-13 -46)" clip-path="url(#clip-path)">
    <path id="handyman_FILL0_wght400_GRAD0_opsz24_1_" data-name="handyman_FILL0_wght400_GRAD0_opsz24 (1)" d="M28.724-3.086a1.687,1.687,0,0,1-.571-.1,1.337,1.337,0,0,1-.5-.324l-7.771-7.771a1.337,1.337,0,0,1-.324-.5,1.687,1.687,0,0,1-.1-.571,1.687,1.687,0,0,1,.1-.571,1.337,1.337,0,0,1,.324-.5l3.238-3.238a1.337,1.337,0,0,1,.5-.324,1.687,1.687,0,0,1,.571-.1,1.687,1.687,0,0,1,.571.1,1.337,1.337,0,0,1,.5.324l7.771,7.771a1.337,1.337,0,0,1,.324.5,1.687,1.687,0,0,1,.1.571,1.687,1.687,0,0,1-.1.571,1.337,1.337,0,0,1-.324.5L29.79-3.5a1.337,1.337,0,0,1-.5.324A1.687,1.687,0,0,1,28.724-3.086Zm0-3.619,1.1-1.1-5.6-5.6-1.1,1.1ZM7.81-3.048a1.576,1.576,0,0,1-.59-.114A1.522,1.522,0,0,1,6.7-3.5L3.5-6.7a1.522,1.522,0,0,1-.343-.514,1.576,1.576,0,0,1-.114-.59,1.435,1.435,0,0,1,.114-.571,1.582,1.582,0,0,1,.343-.5l8.076-8.076h3.238l1.3-1.3L9.829-24.533H7.657l-4.61-4.61,4.3-4.3,4.61,4.61v2.171l6.286,6.286L22.667-24.8l-1.638-1.638,2.133-2.133h-4.3L17.79-29.638l5.41-5.41,1.067,1.067v4.3L26.4-31.81l5.41,5.41a4.537,4.537,0,0,1,.99,1.467,4.444,4.444,0,0,1,.343,1.733,4.584,4.584,0,0,1-.343,1.752,4.483,4.483,0,0,1-.99,1.486L28.571-23.2l-2.133,2.133-1.6-1.6-7.886,7.886v3.2L8.876-3.5a1.582,1.582,0,0,1-.5.343A1.435,1.435,0,0,1,7.81-3.048Zm0-3.657,6.476-6.476v-1.1h-1.1L6.7-7.81Zm0,0L6.7-7.81l.571.533Zm20.914,0,1.1-1.1Z" transform="translate(10.752 81.047)" fill="#0067a6"/>
  </g>
</svg>
